<svg width="24" height="24" viewBox="0 0 24 24" fill="none" xmlns="http://www.w3.org/2000/svg">
  <path d="M23.7602 12.2665C23.7602 11.2799 23.6802 10.5599 23.5069 9.81323H12.2402V14.2665H18.8535C18.7202 15.3732 18.0002 17.0399 16.4002 18.1598L16.3778 18.3089L19.9401 21.0686L20.1869 21.0932C22.4535 18.9999 23.7602 15.9199 23.7602 12.2665Z" fill="#4285F4"/>
  <path d="M12.2396 23.9999C15.4795 23.9999 18.1995 22.9332 20.1862 21.0933L16.3995 18.1599C15.3862 18.8666 14.0262 19.3599 12.2396 19.3599C9.06625 19.3599 6.37294 17.2666 5.41284 14.3733L5.27212 14.3852L1.56797 17.2519L1.51953 17.3866C3.49284 21.3065 7.54619 23.9999 12.2396 23.9999Z" fill="#34A853"/>
  <path d="M5.41352 14.3734C5.16019 13.6267 5.01358 12.8266 5.01358 12C5.01358 11.1733 5.16019 10.3733 5.40019 9.62667L5.39348 9.46765L1.64292 6.55493L1.5202 6.6133C0.706906 8.23999 0.240234 10.0667 0.240234 12C0.240234 13.9333 0.706906 15.76 1.5202 17.3866L5.41352 14.3734Z" fill="#FBBC05"/>
  <path d="M12.2396 4.63997C14.4929 4.63997 16.0128 5.6133 16.8795 6.42669L20.2662 3.12C18.1862 1.18667 15.4795 0 12.2396 0C7.54619 0 3.49284 2.69331 1.51953 6.61328L5.39952 9.62666C6.37294 6.73333 9.06625 4.63997 12.2396 4.63997Z" fill="#EB4335"/>
</svg>
