<svg width="37" height="37" viewBox="0 0 37 37" fill="none" xmlns="http://www.w3.org/2000/svg">
<path d="M33.6424 11.4561C33.5006 11.2512 33.3113 11.0837 33.0905 10.968C32.8698 10.8523 32.6244 10.7918 32.3752 10.7917H11.3052L9.52612 6.52126C9.29285 5.95889 8.89784 5.47846 8.39118 5.14087C7.88452 4.80328 7.28903 4.62373 6.6802 4.62501H3.0835V7.70834H6.6802L13.9939 25.2602C14.111 25.541 14.3086 25.7809 14.5619 25.9496C14.8151 26.1184 15.1126 26.2084 15.4168 26.2083H27.7502C28.393 26.2083 28.9681 25.809 29.1947 25.2093L33.8197 12.876C33.9071 12.6426 33.9366 12.3915 33.9058 12.1443C33.8749 11.897 33.7845 11.6608 33.6424 11.4561Z" fill="white"/>
<path d="M16.1875 32.375C17.4647 32.375 18.5 31.3397 18.5 30.0625C18.5 28.7853 17.4647 27.75 16.1875 27.75C14.9103 27.75 13.875 28.7853 13.875 30.0625C13.875 31.3397 14.9103 32.375 16.1875 32.375Z" fill="white"/>
<path d="M26.979 32.375C28.2562 32.375 29.2915 31.3397 29.2915 30.0625C29.2915 28.7853 28.2562 27.75 26.979 27.75C25.7018 27.75 24.6665 28.7853 24.6665 30.0625C24.6665 31.3397 25.7018 32.375 26.979 32.375Z" fill="white"/>
</svg>
